solid CATIA STL
  facet normal  0.000000e+000 -1.000000e+000  0.000000e+000
    outer loop
      vertex  5.000000e+000  1.008735e+000  6.000000e+000
      vertex  5.000000e+000  1.008735e+000  0.000000e+000
      vertex  3.450000e+002  1.008735e+000  6.000000e+000
    endloop
  endfacet
  facet normal  0.000000e+000 -1.000000e+000  -0.000000e+000
    outer loop
      vertex  3.450000e+002  1.008735e+000  6.000000e+000
      vertex  5.000000e+000  1.008735e+000  0.000000e+000
      vertex  3.450000e+002  1.008735e+000  0.000000e+000
    endloop
  endfacet
  facet normal  1.000000e+000  0.000000e+000  0.000000e+000
    outer loop
      vertex  3.500000e+002  6.008735e+000  6.000000e+000
      vertex  3.500000e+002  6.008735e+000  0.000000e+000
      vertex  3.500000e+002  1.960087e+002  6.000000e+000
    endloop
  endfacet
  facet normal  1.000000e+000  0.000000e+000  0.000000e+000
    outer loop
      vertex  3.500000e+002  1.960087e+002  6.000000e+000
      vertex  3.500000e+002  6.008735e+000  0.000000e+000
      vertex  3.500000e+002  1.960087e+002  0.000000e+000
    endloop
  endfacet
  facet normal  0.000000e+000  1.000000e+000  -0.000000e+000
    outer loop
      vertex  3.450000e+002  2.010087e+002  6.000000e+000
      vertex  3.450000e+002  2.010087e+002  0.000000e+000
      vertex  5.000000e+000  2.010087e+002  6.000000e+000
    endloop
  endfacet
  facet normal  0.000000e+000  1.000000e+000  0.000000e+000
    outer loop
      vertex  5.000000e+000  2.010087e+002  6.000000e+000
      vertex  3.450000e+002  2.010087e+002  0.000000e+000
      vertex  5.000000e+000  2.010087e+002  0.000000e+000
    endloop
  endfacet
  facet normal -1.000000e+000  0.000000e+000  0.000000e+000
    outer loop
      vertex  0.000000e+000  1.960087e+002  6.000000e+000
      vertex  0.000000e+000  1.960087e+002  0.000000e+000
      vertex  0.000000e+000  6.008735e+000  6.000000e+000
    endloop
  endfacet
  facet normal -1.000000e+000  0.000000e+000  0.000000e+000
    outer loop
      vertex  0.000000e+000  6.008735e+000  6.000000e+000
      vertex  0.000000e+000  1.960087e+002  0.000000e+000
      vertex  0.000000e+000  6.008735e+000  0.000000e+000
    endloop
  endfacet
  facet normal  0.000000e+000  0.000000e+000 -9.999999e-001
    outer loop
      vertex  3.500000e+002  1.960087e+002  0.000000e+000
      vertex  3.645563e-002  1.966114e+002  0.000000e+000
      vertex  3.499635e+002  1.966114e+002  0.000000e+000
    endloop
  endfacet
  facet normal  0.000000e+000  0.000000e+000 -1.000000e+000
    outer loop
      vertex  3.499635e+002  1.966114e+002  0.000000e+000
      vertex  3.645563e-002  1.966114e+002  0.000000e+000
      vertex  1.452909e-001  1.972053e+002  0.000000e+000
    endloop
  endfacet
  facet normal  0.000000e+000  0.000000e+000 -1.000000e+000
    outer loop
      vertex  3.499635e+002  1.966114e+002  0.000000e+000
      vertex  1.452909e-001  1.972053e+002  0.000000e+000
      vertex  3.498547e+002  1.972053e+002  0.000000e+000
    endloop
  endfacet
  facet normal  0.000000e+000  0.000000e+000 -1.000000e+000
    outer loop
      vertex  3.498547e+002  1.972053e+002  0.000000e+000
      vertex  1.452909e-001  1.972053e+002  0.000000e+000
      vertex  3.249188e-001  1.977818e+002  0.000000e+000
    endloop
  endfacet
  facet normal  0.000000e+000  0.000000e+000 -1.000000e+000
    outer loop
      vertex  3.498547e+002  1.972053e+002  0.000000e+000
      vertex  3.249188e-001  1.977818e+002  0.000000e+000
      vertex  3.496751e+002  1.977818e+002  0.000000e+000
    endloop
  endfacet
  facet normal  0.000000e+000  0.000000e+000 -1.000000e+000
    outer loop
      vertex  3.496751e+002  1.977818e+002  0.000000e+000
      vertex  3.249188e-001  1.977818e+002  0.000000e+000
      vertex  5.727199e-001  1.983324e+002  0.000000e+000
    endloop
  endfacet
  facet normal  0.000000e+000  0.000000e+000 -9.999999e-001
    outer loop
      vertex  3.496751e+002  1.977818e+002  0.000000e+000
      vertex  5.727199e-001  1.983324e+002  0.000000e+000
      vertex  3.494273e+002  1.983324e+002  0.000000e+000
    endloop
  endfacet
  facet normal  0.000000e+000  0.000000e+000 -1.000000e+000
    outer loop
      vertex  3.494273e+002  1.983324e+002  0.000000e+000
      vertex  5.727199e-001  1.983324e+002  0.000000e+000
      vertex  8.850807e-001  1.988491e+002  0.000000e+000
    endloop
  endfacet
  facet normal  0.000000e+000  0.000000e+000 -1.000000e+000
    outer loop
      vertex  3.494273e+002  1.983324e+002  0.000000e+000
      vertex  8.850807e-001  1.988491e+002  0.000000e+000
      vertex  3.491149e+002  1.988491e+002  0.000000e+000
    endloop
  endfacet
  facet normal  0.000000e+000  0.000000e+000 -1.000000e+000
    outer loop
      vertex  3.491149e+002  1.988491e+002  0.000000e+000
      vertex  8.850807e-001  1.988491e+002  0.000000e+000
      vertex  1.257446e+000  1.993243e+002  0.000000e+000
    endloop
  endfacet
  facet normal  0.000000e+000  0.000000e+000 -1.000000e+000
    outer loop
      vertex  3.491149e+002  1.988491e+002  0.000000e+000
      vertex  1.257446e+000  1.993243e+002  0.000000e+000
      vertex  3.487426e+002  1.993243e+002  0.000000e+000
    endloop
  endfacet
  facet normal  0.000000e+000  0.000000e+000 -1.000000e+000
    outer loop
      vertex  3.487426e+002  1.993243e+002  0.000000e+000
      vertex  1.257446e+000  1.993243e+002  0.000000e+000
      vertex  1.684387e+000  1.997513e+002  0.000000e+000
    endloop
  endfacet
  facet normal  0.000000e+000  0.000000e+000 -1.000000e+000
    outer loop
      vertex  3.487426e+002  1.993243e+002  0.000000e+000
      vertex  1.684387e+000  1.997513e+002  0.000000e+000
      vertex  3.483156e+002  1.997513e+002  0.000000e+000
    endloop
  endfacet
  facet normal  0.000000e+000  0.000000e+000 -1.000000e+000
    outer loop
      vertex  3.483156e+002  1.997513e+002  0.000000e+000
      vertex  1.684387e+000  1.997513e+002  0.000000e+000
      vertex  2.159676e+000  2.001237e+002  0.000000e+000
    endloop
  endfacet
  facet normal  0.000000e+000  0.000000e+000 -1.000000e+000
    outer loop
      vertex  3.483156e+002  1.997513e+002  0.000000e+000
      vertex  2.159676e+000  2.001237e+002  0.000000e+000
      vertex  3.478403e+002  2.001237e+002  0.000000e+000
    endloop
  endfacet
  facet normal  0.000000e+000  0.000000e+000 -1.000000e+000
    outer loop
      vertex  3.478403e+002  2.001237e+002  0.000000e+000
      vertex  2.159676e+000  2.001237e+002  0.000000e+000
      vertex  2.676384e+000  2.004360e+002  0.000000e+000
    endloop
  endfacet
  facet normal  0.000000e+000  0.000000e+000 -1.000000e+000
    outer loop
      vertex  3.478403e+002  2.001237e+002  0.000000e+000
      vertex  2.676384e+000  2.004360e+002  0.000000e+000
      vertex  3.473236e+002  2.004360e+002  0.000000e+000
    endloop
  endfacet
  facet normal  0.000000e+000  0.000000e+000 -1.000000e+000
    outer loop
      vertex  3.473236e+002  2.004360e+002  0.000000e+000
      vertex  2.676384e+000  2.004360e+002  0.000000e+000
      vertex  3.226976e+000  2.006838e+002  0.000000e+000
    endloop
  endfacet
  facet normal  0.000000e+000  0.000000e+000 -1.000000e+000
    outer loop
      vertex  3.473236e+002  2.004360e+002  0.000000e+000
      vertex  3.226976e+000  2.006838e+002  0.000000e+000
      vertex  3.467730e+002  2.006838e+002  0.000000e+000
    endloop
  endfacet
  facet normal  0.000000e+000  0.000000e+000 -9.999999e-001
    outer loop
      vertex  3.467730e+002  2.006838e+002  0.000000e+000
      vertex  3.226976e+000  2.006838e+002  0.000000e+000
      vertex  3.803422e+000  2.008634e+002  0.000000e+000
    endloop
  endfacet
  facet normal  0.000000e+000  0.000000e+000 -1.000000e+000
    outer loop
      vertex  3.467730e+002  2.006838e+002  0.000000e+000
      vertex  3.803422e+000  2.008634e+002  0.000000e+000
      vertex  3.461966e+002  2.008634e+002  0.000000e+000
    endloop
  endfacet
  facet normal  0.000000e+000  0.000000e+000 -1.000000e+000
    outer loop
      vertex  3.461966e+002  2.008634e+002  0.000000e+000
      vertex  3.803422e+000  2.008634e+002  0.000000e+000
      vertex  4.397316e+000  2.009723e+002  0.000000e+000
    endloop
  endfacet
  facet normal  0.000000e+000  0.000000e+000 -1.000000e+000
    outer loop
      vertex  3.461966e+002  2.008634e+002  0.000000e+000
      vertex  4.397316e+000  2.009723e+002  0.000000e+000
      vertex  3.456027e+002  2.009723e+002  0.000000e+000
    endloop
  endfacet
  facet normal  0.000000e+000  0.000000e+000 -1.000000e+000
    outer loop
      vertex  3.456027e+002  2.009723e+002  0.000000e+000
      vertex  4.397316e+000  2.009723e+002  0.000000e+000
      vertex  5.000000e+000  2.010087e+002  0.000000e+000
    endloop
  endfacet
  facet normal  0.000000e+000  0.000000e+000 -9.999999e-001
    outer loop
      vertex  3.456027e+002  2.009723e+002  0.000000e+000
      vertex  5.000000e+000  2.010087e+002  0.000000e+000
      vertex  3.450000e+002  2.010087e+002  0.000000e+000
    endloop
  endfacet
  facet normal  0.000000e+000  0.000000e+000 -1.000000e+000
    outer loop
      vertex  3.645563e-002  1.966114e+002  0.000000e+000
      vertex  3.500000e+002  1.960087e+002  0.000000e+000
      vertex  0.000000e+000  1.960087e+002  0.000000e+000
    endloop
  endfacet
  facet normal  0.000000e+000  0.000000e+000 -1.000000e+000
    outer loop
      vertex  0.000000e+000  1.960087e+002  0.000000e+000
      vertex  3.500000e+002  1.960087e+002  0.000000e+000
      vertex  3.500000e+002  6.008735e+000  0.000000e+000
    endloop
  endfacet
  facet normal  0.000000e+000  0.000000e+000 -1.000000e+000
    outer loop
      vertex  0.000000e+000  1.960087e+002  0.000000e+000
      vertex  3.500000e+002  6.008735e+000  0.000000e+000
      vertex  0.000000e+000  6.008735e+000  0.000000e+000
    endloop
  endfacet
  facet normal  0.000000e+000  0.000000e+000 -1.000000e+000
    outer loop
      vertex  0.000000e+000  6.008735e+000  0.000000e+000
      vertex  3.500000e+002  6.008735e+000  0.000000e+000
      vertex  3.499635e+002  5.406051e+000  0.000000e+000
    endloop
  endfacet
  facet normal  0.000000e+000  0.000000e+000 -9.999999e-001
    outer loop
      vertex  0.000000e+000  6.008735e+000  0.000000e+000
      vertex  3.499635e+002  5.406051e+000  0.000000e+000
      vertex  3.645563e-002  5.406051e+000  0.000000e+000
    endloop
  endfacet
  facet normal  0.000000e+000  0.000000e+000 -1.000000e+000
    outer loop
      vertex  3.645563e-002  5.406051e+000  0.000000e+000
      vertex  3.499635e+002  5.406051e+000  0.000000e+000
      vertex  3.498547e+002  4.812156e+000  0.000000e+000
    endloop
  endfacet
  facet normal  0.000000e+000  0.000000e+000 -1.000000e+000
    outer loop
      vertex  3.645563e-002  5.406051e+000  0.000000e+000
      vertex  3.498547e+002  4.812156e+000  0.000000e+000
      vertex  1.452909e-001  4.812156e+000  0.000000e+000
    endloop
  endfacet
  facet normal  0.000000e+000  0.000000e+000 -1.000000e+000
    outer loop
      vertex  1.452909e-001  4.812156e+000  0.000000e+000
      vertex  3.498547e+002  4.812156e+000  0.000000e+000
      vertex  3.496751e+002  4.235710e+000  0.000000e+000
    endloop
  endfacet
  facet normal  0.000000e+000  0.000000e+000 -1.000000e+000
    outer loop
      vertex  1.452909e-001  4.812156e+000  0.000000e+000
      vertex  3.496751e+002  4.235710e+000  0.000000e+000
      vertex  3.249188e-001  4.235710e+000  0.000000e+000
    endloop
  endfacet
  facet normal  0.000000e+000  0.000000e+000 -9.999999e-001
    outer loop
      vertex  3.249188e-001  4.235710e+000  0.000000e+000
      vertex  3.496751e+002  4.235710e+000  0.000000e+000
      vertex  3.494273e+002  3.685119e+000  0.000000e+000
    endloop
  endfacet
  facet normal  0.000000e+000  0.000000e+000 -1.000000e+000
    outer loop
      vertex  3.249188e-001  4.235710e+000  0.000000e+000
      vertex  3.494273e+002  3.685119e+000  0.000000e+000
      vertex  5.727199e-001  3.685119e+000  0.000000e+000
    endloop
  endfacet
  facet normal  0.000000e+000  0.000000e+000 -1.000000e+000
    outer loop
      vertex  5.727199e-001  3.685119e+000  0.000000e+000
      vertex  3.494273e+002  3.685119e+000  0.000000e+000
      vertex  3.491149e+002  3.168411e+000  0.000000e+000
    endloop
  endfacet
  facet normal  0.000000e+000  0.000000e+000 -1.000000e+000
    outer loop
      vertex  5.727199e-001  3.685119e+000  0.000000e+000
      vertex  3.491149e+002  3.168411e+000  0.000000e+000
      vertex  8.850807e-001  3.168411e+000  0.000000e+000
    endloop
  endfacet
  facet normal  0.000000e+000  0.000000e+000 -1.000000e+000
    outer loop
      vertex  8.850807e-001  3.168411e+000  0.000000e+000
      vertex  3.491149e+002  3.168411e+000  0.000000e+000
      vertex  3.487426e+002  2.693121e+000  0.000000e+000
    endloop
  endfacet
  facet normal  0.000000e+000  0.000000e+000 -1.000000e+000
    outer loop
      vertex  8.850807e-001  3.168411e+000  0.000000e+000
      vertex  3.487426e+002  2.693121e+000  0.000000e+000
      vertex  1.257446e+000  2.693121e+000  0.000000e+000
    endloop
  endfacet
  facet normal  0.000000e+000  0.000000e+000 -1.000000e+000
    outer loop
      vertex  1.257446e+000  2.693121e+000  0.000000e+000
      vertex  3.487426e+002  2.693121e+000  0.000000e+000
      vertex  3.483156e+002  2.266181e+000  0.000000e+000
    endloop
  endfacet
  facet normal  0.000000e+000  0.000000e+000 -1.000000e+000
    outer loop
      vertex  1.257446e+000  2.693121e+000  0.000000e+000
      vertex  3.483156e+002  2.266181e+000  0.000000e+000
      vertex  1.684387e+000  2.266181e+000  0.000000e+000
    endloop
  endfacet
  facet normal  0.000000e+000  0.000000e+000 -1.000000e+000
    outer loop
      vertex  1.684387e+000  2.266181e+000  0.000000e+000
      vertex  3.483156e+002  2.266181e+000  0.000000e+000
      vertex  3.478403e+002  1.893815e+000  0.000000e+000
    endloop
  endfacet
  facet normal  0.000000e+000  0.000000e+000 -1.000000e+000
    outer loop
      vertex  1.684387e+000  2.266181e+000  0.000000e+000
      vertex  3.478403e+002  1.893815e+000  0.000000e+000
      vertex  2.159676e+000  1.893815e+000  0.000000e+000
    endloop
  endfacet
  facet normal  0.000000e+000  0.000000e+000 -1.000000e+000
    outer loop
      vertex  2.159676e+000  1.893815e+000  0.000000e+000
      vertex  3.478403e+002  1.893815e+000  0.000000e+000
      vertex  3.473236e+002  1.581454e+000  0.000000e+000
    endloop
  endfacet
  facet normal  0.000000e+000  0.000000e+000 -1.000000e+000
    outer loop
      vertex  2.159676e+000  1.893815e+000  0.000000e+000
      vertex  3.473236e+002  1.581454e+000  0.000000e+000
      vertex  2.676384e+000  1.581454e+000  0.000000e+000
    endloop
  endfacet
  facet normal  0.000000e+000  0.000000e+000 -1.000000e+000
    outer loop
      vertex  2.676384e+000  1.581454e+000  0.000000e+000
      vertex  3.473236e+002  1.581454e+000  0.000000e+000
      vertex  3.467730e+002  1.333653e+000  0.000000e+000
    endloop
  endfacet
  facet normal  0.000000e+000  0.000000e+000 -1.000000e+000
    outer loop
      vertex  2.676384e+000  1.581454e+000  0.000000e+000
      vertex  3.467730e+002  1.333653e+000  0.000000e+000
      vertex  3.226976e+000  1.333653e+000  0.000000e+000
    endloop
  endfacet
  facet normal  0.000000e+000  0.000000e+000 -1.000000e+000
    outer loop
      vertex  3.226976e+000  1.333653e+000  0.000000e+000
      vertex  3.467730e+002  1.333653e+000  0.000000e+000
      vertex  3.461966e+002  1.154026e+000  0.000000e+000
    endloop
  endfacet
  facet normal  0.000000e+000  0.000000e+000 -1.000000e+000
    outer loop
      vertex  3.226976e+000  1.333653e+000  0.000000e+000
      vertex  3.461966e+002  1.154026e+000  0.000000e+000
      vertex  3.803422e+000  1.154026e+000  0.000000e+000
    endloop
  endfacet
  facet normal  0.000000e+000  0.000000e+000 -1.000000e+000
    outer loop
      vertex  3.803422e+000  1.154026e+000  0.000000e+000
      vertex  3.461966e+002  1.154026e+000  0.000000e+000
      vertex  3.456027e+002  1.045190e+000  0.000000e+000
    endloop
  endfacet
  facet normal  0.000000e+000  0.000000e+000 -1.000000e+000
    outer loop
      vertex  3.803422e+000  1.154026e+000  0.000000e+000
      vertex  3.456027e+002  1.045190e+000  0.000000e+000
      vertex  4.397316e+000  1.045190e+000  0.000000e+000
    endloop
  endfacet
  facet normal  0.000000e+000  0.000000e+000 -1.000000e+000
    outer loop
      vertex  4.397316e+000  1.045190e+000  0.000000e+000
      vertex  3.456027e+002  1.045190e+000  0.000000e+000
      vertex  3.450000e+002  1.008735e+000  0.000000e+000
    endloop
  endfacet
  facet normal  0.000000e+000  0.000000e+000 -1.000000e+000
    outer loop
      vertex  4.397316e+000  1.045190e+000  0.000000e+000
      vertex  3.450000e+002  1.008735e+000  0.000000e+000
      vertex  5.000000e+000  1.008735e+000  0.000000e+000
    endloop
  endfacet
  facet normal  -0.000000e+000  0.000000e+000  9.999999e-001
    outer loop
      vertex  3.450000e+002  2.010087e+002  6.000000e+000
      vertex  5.000000e+000  2.010087e+002  6.000000e+000
      vertex  3.456027e+002  2.009723e+002  6.000000e+000
    endloop
  endfacet
  facet normal  0.000000e+000  0.000000e+000  1.000000e+000
    outer loop
      vertex  3.456027e+002  2.009723e+002  6.000000e+000
      vertex  5.000000e+000  2.010087e+002  6.000000e+000
      vertex  4.397316e+000  2.009723e+002  6.000000e+000
    endloop
  endfacet
  facet normal  -0.000000e+000  0.000000e+000  1.000000e+000
    outer loop
      vertex  3.456027e+002  2.009723e+002  6.000000e+000
      vertex  4.397316e+000  2.009723e+002  6.000000e+000
      vertex  3.461966e+002  2.008634e+002  6.000000e+000
    endloop
  endfacet
  facet normal  0.000000e+000  0.000000e+000  1.000000e+000
    outer loop
      vertex  3.461966e+002  2.008634e+002  6.000000e+000
      vertex  4.397316e+000  2.009723e+002  6.000000e+000
      vertex  3.803422e+000  2.008634e+002  6.000000e+000
    endloop
  endfacet
  facet normal  -0.000000e+000  0.000000e+000  1.000000e+000
    outer loop
      vertex  3.461966e+002  2.008634e+002  6.000000e+000
      vertex  3.803422e+000  2.008634e+002  6.000000e+000
      vertex  3.467730e+002  2.006838e+002  6.000000e+000
    endloop
  endfacet
  facet normal  0.000000e+000  0.000000e+000  9.999999e-001
    outer loop
      vertex  3.467730e+002  2.006838e+002  6.000000e+000
      vertex  3.803422e+000  2.008634e+002  6.000000e+000
      vertex  3.226976e+000  2.006838e+002  6.000000e+000
    endloop
  endfacet
  facet normal  -0.000000e+000  0.000000e+000  1.000000e+000
    outer loop
      vertex  3.467730e+002  2.006838e+002  6.000000e+000
      vertex  3.226976e+000  2.006838e+002  6.000000e+000
      vertex  3.473236e+002  2.004360e+002  6.000000e+000
    endloop
  endfacet
  facet normal  0.000000e+000  0.000000e+000  1.000000e+000
    outer loop
      vertex  3.473236e+002  2.004360e+002  6.000000e+000
      vertex  3.226976e+000  2.006838e+002  6.000000e+000
      vertex  2.676384e+000  2.004360e+002  6.000000e+000
    endloop
  endfacet
  facet normal  -0.000000e+000  0.000000e+000  1.000000e+000
    outer loop
      vertex  3.473236e+002  2.004360e+002  6.000000e+000
      vertex  2.676384e+000  2.004360e+002  6.000000e+000
      vertex  3.478403e+002  2.001237e+002  6.000000e+000
    endloop
  endfacet
  facet normal  0.000000e+000  0.000000e+000  1.000000e+000
    outer loop
      vertex  3.478403e+002  2.001237e+002  6.000000e+000
      vertex  2.676384e+000  2.004360e+002  6.000000e+000
      vertex  2.159676e+000  2.001237e+002  6.000000e+000
    endloop
  endfacet
  facet normal  -0.000000e+000  0.000000e+000  1.000000e+000
    outer loop
      vertex  3.478403e+002  2.001237e+002  6.000000e+000
      vertex  2.159676e+000  2.001237e+002  6.000000e+000
      vertex  3.483156e+002  1.997513e+002  6.000000e+000
    endloop
  endfacet
  facet normal  0.000000e+000  0.000000e+000  1.000000e+000
    outer loop
      vertex  3.483156e+002  1.997513e+002  6.000000e+000
      vertex  2.159676e+000  2.001237e+002  6.000000e+000
      vertex  1.684387e+000  1.997513e+002  6.000000e+000
    endloop
  endfacet
  facet normal  -0.000000e+000  0.000000e+000  1.000000e+000
    outer loop
      vertex  3.483156e+002  1.997513e+002  6.000000e+000
      vertex  1.684387e+000  1.997513e+002  6.000000e+000
      vertex  3.487426e+002  1.993243e+002  6.000000e+000
    endloop
  endfacet
  facet normal  0.000000e+000  0.000000e+000  1.000000e+000
    outer loop
      vertex  3.487426e+002  1.993243e+002  6.000000e+000
      vertex  1.684387e+000  1.997513e+002  6.000000e+000
      vertex  1.257446e+000  1.993243e+002  6.000000e+000
    endloop
  endfacet
  facet normal  -0.000000e+000  0.000000e+000  1.000000e+000
    outer loop
      vertex  3.487426e+002  1.993243e+002  6.000000e+000
      vertex  1.257446e+000  1.993243e+002  6.000000e+000
      vertex  3.491149e+002  1.988491e+002  6.000000e+000
    endloop
  endfacet
  facet normal  0.000000e+000  0.000000e+000  1.000000e+000
    outer loop
      vertex  3.491149e+002  1.988491e+002  6.000000e+000
      vertex  1.257446e+000  1.993243e+002  6.000000e+000
      vertex  8.850807e-001  1.988491e+002  6.000000e+000
    endloop
  endfacet
  facet normal  -0.000000e+000  0.000000e+000  1.000000e+000
    outer loop
      vertex  3.491149e+002  1.988491e+002  6.000000e+000
      vertex  8.850807e-001  1.988491e+002  6.000000e+000
      vertex  3.494273e+002  1.983324e+002  6.000000e+000
    endloop
  endfacet
  facet normal  0.000000e+000  0.000000e+000  1.000000e+000
    outer loop
      vertex  3.494273e+002  1.983324e+002  6.000000e+000
      vertex  8.850807e-001  1.988491e+002  6.000000e+000
      vertex  5.727199e-001  1.983324e+002  6.000000e+000
    endloop
  endfacet
  facet normal  -0.000000e+000  0.000000e+000  9.999999e-001
    outer loop
      vertex  3.494273e+002  1.983324e+002  6.000000e+000
      vertex  5.727199e-001  1.983324e+002  6.000000e+000
      vertex  3.496751e+002  1.977818e+002  6.000000e+000
    endloop
  endfacet
  facet normal  0.000000e+000  0.000000e+000  1.000000e+000
    outer loop
      vertex  3.496751e+002  1.977818e+002  6.000000e+000
      vertex  5.727199e-001  1.983324e+002  6.000000e+000
      vertex  3.249188e-001  1.977818e+002  6.000000e+000
    endloop
  endfacet
  facet normal  -0.000000e+000  0.000000e+000  1.000000e+000
    outer loop
      vertex  3.496751e+002  1.977818e+002  6.000000e+000
      vertex  3.249188e-001  1.977818e+002  6.000000e+000
      vertex  3.498547e+002  1.972053e+002  6.000000e+000
    endloop
  endfacet
  facet normal  0.000000e+000  0.000000e+000  1.000000e+000
    outer loop
      vertex  3.498547e+002  1.972053e+002  6.000000e+000
      vertex  3.249188e-001  1.977818e+002  6.000000e+000
      vertex  1.452909e-001  1.972053e+002  6.000000e+000
    endloop
  endfacet
  facet normal  -0.000000e+000  0.000000e+000  1.000000e+000
    outer loop
      vertex  3.498547e+002  1.972053e+002  6.000000e+000
      vertex  1.452909e-001  1.972053e+002  6.000000e+000
      vertex  3.499635e+002  1.966114e+002  6.000000e+000
    endloop
  endfacet
  facet normal  0.000000e+000  0.000000e+000  1.000000e+000
    outer loop
      vertex  3.499635e+002  1.966114e+002  6.000000e+000
      vertex  1.452909e-001  1.972053e+002  6.000000e+000
      vertex  3.645563e-002  1.966114e+002  6.000000e+000
    endloop
  endfacet
  facet normal  -0.000000e+000  0.000000e+000  9.999999e-001
    outer loop
      vertex  3.499635e+002  1.966114e+002  6.000000e+000
      vertex  3.645563e-002  1.966114e+002  6.000000e+000
      vertex  3.500000e+002  1.960087e+002  6.000000e+000
    endloop
  endfacet
  facet normal  0.000000e+000  0.000000e+000  1.000000e+000
    outer loop
      vertex  3.500000e+002  1.960087e+002  6.000000e+000
      vertex  3.645563e-002  1.966114e+002  6.000000e+000
      vertex  0.000000e+000  1.960087e+002  6.000000e+000
    endloop
  endfacet
  facet normal  -0.000000e+000  0.000000e+000  1.000000e+000
    outer loop
      vertex  3.500000e+002  1.960087e+002  6.000000e+000
      vertex  0.000000e+000  1.960087e+002  6.000000e+000
      vertex  3.500000e+002  6.008735e+000  6.000000e+000
    endloop
  endfacet
  facet normal  0.000000e+000  0.000000e+000  1.000000e+000
    outer loop
      vertex  3.500000e+002  6.008735e+000  6.000000e+000
      vertex  0.000000e+000  1.960087e+002  6.000000e+000
      vertex  0.000000e+000  6.008735e+000  6.000000e+000
    endloop
  endfacet
  facet normal  -0.000000e+000  0.000000e+000  1.000000e+000
    outer loop
      vertex  3.500000e+002  6.008735e+000  6.000000e+000
      vertex  0.000000e+000  6.008735e+000  6.000000e+000
      vertex  3.499635e+002  5.406051e+000  6.000000e+000
    endloop
  endfacet
  facet normal  0.000000e+000  0.000000e+000  9.999999e-001
    outer loop
      vertex  3.499635e+002  5.406051e+000  6.000000e+000
      vertex  0.000000e+000  6.008735e+000  6.000000e+000
      vertex  3.645563e-002  5.406051e+000  6.000000e+000
    endloop
  endfacet
  facet normal  -0.000000e+000  0.000000e+000  1.000000e+000
    outer loop
      vertex  3.499635e+002  5.406051e+000  6.000000e+000
      vertex  3.645563e-002  5.406051e+000  6.000000e+000
      vertex  3.498547e+002  4.812156e+000  6.000000e+000
    endloop
  endfacet
  facet normal  0.000000e+000  0.000000e+000  1.000000e+000
    outer loop
      vertex  3.498547e+002  4.812156e+000  6.000000e+000
      vertex  3.645563e-002  5.406051e+000  6.000000e+000
      vertex  1.452909e-001  4.812156e+000  6.000000e+000
    endloop
  endfacet
  facet normal  -0.000000e+000  0.000000e+000  1.000000e+000
    outer loop
      vertex  3.498547e+002  4.812156e+000  6.000000e+000
      vertex  1.452909e-001  4.812156e+000  6.000000e+000
      vertex  3.496751e+002  4.235710e+000  6.000000e+000
    endloop
  endfacet
  facet normal  0.000000e+000  0.000000e+000  1.000000e+000
    outer loop
      vertex  3.496751e+002  4.235710e+000  6.000000e+000
      vertex  1.452909e-001  4.812156e+000  6.000000e+000
      vertex  3.249188e-001  4.235710e+000  6.000000e+000
    endloop
  endfacet
  facet normal  -0.000000e+000  0.000000e+000  9.999999e-001
    outer loop
      vertex  3.496751e+002  4.235710e+000  6.000000e+000
      vertex  3.249188e-001  4.235710e+000  6.000000e+000
      vertex  3.494273e+002  3.685119e+000  6.000000e+000
    endloop
  endfacet
  facet normal  0.000000e+000  0.000000e+000  1.000000e+000
    outer loop
      vertex  3.494273e+002  3.685119e+000  6.000000e+000
      vertex  3.249188e-001  4.235710e+000  6.000000e+000
      vertex  5.727199e-001  3.685119e+000  6.000000e+000
    endloop
  endfacet
  facet normal  -0.000000e+000  0.000000e+000  1.000000e+000
    outer loop
      vertex  3.494273e+002  3.685119e+000  6.000000e+000
      vertex  5.727199e-001  3.685119e+000  6.000000e+000
      vertex  3.491149e+002  3.168411e+000  6.000000e+000
    endloop
  endfacet
  facet normal  0.000000e+000  0.000000e+000  1.000000e+000
    outer loop
      vertex  3.491149e+002  3.168411e+000  6.000000e+000
      vertex  5.727199e-001  3.685119e+000  6.000000e+000
      vertex  8.850807e-001  3.168411e+000  6.000000e+000
    endloop
  endfacet
  facet normal  -0.000000e+000  0.000000e+000  1.000000e+000
    outer loop
      vertex  3.491149e+002  3.168411e+000  6.000000e+000
      vertex  8.850807e-001  3.168411e+000  6.000000e+000
      vertex  3.487426e+002  2.693121e+000  6.000000e+000
    endloop
  endfacet
  facet normal  0.000000e+000  0.000000e+000  1.000000e+000
    outer loop
      vertex  3.487426e+002  2.693121e+000  6.000000e+000
      vertex  8.850807e-001  3.168411e+000  6.000000e+000
      vertex  1.257446e+000  2.693121e+000  6.000000e+000
    endloop
  endfacet
  facet normal  -0.000000e+000  0.000000e+000  1.000000e+000
    outer loop
      vertex  3.487426e+002  2.693121e+000  6.000000e+000
      vertex  1.257446e+000  2.693121e+000  6.000000e+000
      vertex  3.483156e+002  2.266181e+000  6.000000e+000
    endloop
  endfacet
  facet normal  0.000000e+000  0.000000e+000  1.000000e+000
    outer loop
      vertex  3.483156e+002  2.266181e+000  6.000000e+000
      vertex  1.257446e+000  2.693121e+000  6.000000e+000
      vertex  1.684387e+000  2.266181e+000  6.000000e+000
    endloop
  endfacet
  facet normal  -0.000000e+000  0.000000e+000  1.000000e+000
    outer loop
      vertex  3.483156e+002  2.266181e+000  6.000000e+000
      vertex  1.684387e+000  2.266181e+000  6.000000e+000
      vertex  3.478403e+002  1.893815e+000  6.000000e+000
    endloop
  endfacet
  facet normal  0.000000e+000  0.000000e+000  1.000000e+000
    outer loop
      vertex  3.478403e+002  1.893815e+000  6.000000e+000
      vertex  1.684387e+000  2.266181e+000  6.000000e+000
      vertex  2.159676e+000  1.893815e+000  6.000000e+000
    endloop
  endfacet
  facet normal  -0.000000e+000  0.000000e+000  1.000000e+000
    outer loop
      vertex  3.478403e+002  1.893815e+000  6.000000e+000
      vertex  2.159676e+000  1.893815e+000  6.000000e+000
      vertex  3.473236e+002  1.581454e+000  6.000000e+000
    endloop
  endfacet
  facet normal  0.000000e+000  0.000000e+000  1.000000e+000
    outer loop
      vertex  3.473236e+002  1.581454e+000  6.000000e+000
      vertex  2.159676e+000  1.893815e+000  6.000000e+000
      vertex  2.676384e+000  1.581454e+000  6.000000e+000
    endloop
  endfacet
  facet normal  -0.000000e+000  0.000000e+000  1.000000e+000
    outer loop
      vertex  3.473236e+002  1.581454e+000  6.000000e+000
      vertex  2.676384e+000  1.581454e+000  6.000000e+000
      vertex  3.467730e+002  1.333653e+000  6.000000e+000
    endloop
  endfacet
  facet normal  0.000000e+000  0.000000e+000  1.000000e+000
    outer loop
      vertex  3.467730e+002  1.333653e+000  6.000000e+000
      vertex  2.676384e+000  1.581454e+000  6.000000e+000
      vertex  3.226976e+000  1.333653e+000  6.000000e+000
    endloop
  endfacet
  facet normal  -0.000000e+000  0.000000e+000  1.000000e+000
    outer loop
      vertex  3.467730e+002  1.333653e+000  6.000000e+000
      vertex  3.226976e+000  1.333653e+000  6.000000e+000
      vertex  3.461966e+002  1.154026e+000  6.000000e+000
    endloop
  endfacet
  facet normal  0.000000e+000  0.000000e+000  1.000000e+000
    outer loop
      vertex  3.461966e+002  1.154026e+000  6.000000e+000
      vertex  3.226976e+000  1.333653e+000  6.000000e+000
      vertex  3.803422e+000  1.154026e+000  6.000000e+000
    endloop
  endfacet
  facet normal  -0.000000e+000  0.000000e+000  1.000000e+000
    outer loop
      vertex  3.461966e+002  1.154026e+000  6.000000e+000
      vertex  3.803422e+000  1.154026e+000  6.000000e+000
      vertex  3.456027e+002  1.045190e+000  6.000000e+000
    endloop
  endfacet
  facet normal  0.000000e+000  0.000000e+000  1.000000e+000
    outer loop
      vertex  3.456027e+002  1.045190e+000  6.000000e+000
      vertex  3.803422e+000  1.154026e+000  6.000000e+000
      vertex  4.397316e+000  1.045190e+000  6.000000e+000
    endloop
  endfacet
  facet normal  -0.000000e+000  0.000000e+000  1.000000e+000
    outer loop
      vertex  3.456027e+002  1.045190e+000  6.000000e+000
      vertex  4.397316e+000  1.045190e+000  6.000000e+000
      vertex  3.450000e+002  1.008735e+000  6.000000e+000
    endloop
  endfacet
  facet normal  0.000000e+000  0.000000e+000  1.000000e+000
    outer loop
      vertex  3.450000e+002  1.008735e+000  6.000000e+000
      vertex  4.397316e+000  1.045190e+000  6.000000e+000
      vertex  5.000000e+000  1.008735e+000  6.000000e+000
    endloop
  endfacet
  facet normal -6.037848e-002 -9.981755e-001  -0.000000e+000
    outer loop
      vertex  5.000000e+000  1.008735e+000  0.000000e+000
      vertex  5.000000e+000  1.008735e+000  6.000000e+000
      vertex  4.397316e+000  1.045190e+000  0.000000e+000
    endloop
  endfacet
  facet normal -6.037848e-002 -9.981755e-001  0.000000e+000
    outer loop
      vertex  4.397316e+000  1.045190e+000  0.000000e+000
      vertex  5.000000e+000  1.008735e+000  6.000000e+000
      vertex  4.397316e+000  1.045190e+000  6.000000e+000
    endloop
  endfacet
  facet normal -1.802552e-001 -9.836198e-001  -0.000000e+000
    outer loop
      vertex  4.397316e+000  1.045190e+000  0.000000e+000
      vertex  4.397316e+000  1.045190e+000  6.000000e+000
      vertex  3.803422e+000  1.154026e+000  0.000000e+000
    endloop
  endfacet
  facet normal -1.802552e-001 -9.836198e-001  0.000000e+000
    outer loop
      vertex  3.803422e+000  1.154026e+000  0.000000e+000
      vertex  4.397316e+000  1.045190e+000  6.000000e+000
      vertex  3.803422e+000  1.154026e+000  6.000000e+000
    endloop
  endfacet
  facet normal -2.975029e-001 -9.547208e-001  -0.000000e+000
    outer loop
      vertex  3.803422e+000  1.154026e+000  0.000000e+000
      vertex  3.803422e+000  1.154026e+000  6.000000e+000
      vertex  3.226976e+000  1.333653e+000  0.000000e+000
    endloop
  endfacet
  facet normal -2.975029e-001 -9.547208e-001  0.000000e+000
    outer loop
      vertex  3.226976e+000  1.333653e+000  0.000000e+000
      vertex  3.803422e+000  1.154026e+000  6.000000e+000
      vertex  3.226976e+000  1.333653e+000  6.000000e+000
    endloop
  endfacet
  facet normal -4.104128e-001 -9.118999e-001  -0.000000e+000
    outer loop
      vertex  3.226976e+000  1.333653e+000  0.000000e+000
      vertex  3.226976e+000  1.333653e+000  6.000000e+000
      vertex  2.676384e+000  1.581454e+000  0.000000e+000
    endloop
  endfacet
  facet normal -4.104128e-001 -9.118999e-001  0.000000e+000
    outer loop
      vertex  2.676384e+000  1.581454e+000  0.000000e+000
      vertex  3.226976e+000  1.333653e+000  6.000000e+000
      vertex  2.676384e+000  1.581454e+000  6.000000e+000
    endloop
  endfacet
  facet normal -5.173379e-001 -8.557813e-001  -0.000000e+000
    outer loop
      vertex  2.676384e+000  1.581454e+000  0.000000e+000
      vertex  2.676384e+000  1.581454e+000  6.000000e+000
      vertex  2.159676e+000  1.893815e+000  0.000000e+000
    endloop
  endfacet
  facet normal -5.173379e-001 -8.557813e-001  0.000000e+000
    outer loop
      vertex  2.159676e+000  1.893815e+000  0.000000e+000
      vertex  2.676384e+000  1.581454e+000  6.000000e+000
      vertex  2.159676e+000  1.893815e+000  6.000000e+000
    endloop
  endfacet
  facet normal -6.167187e-001 -7.871836e-001  -0.000000e+000
    outer loop
      vertex  2.159676e+000  1.893815e+000  0.000000e+000
      vertex  2.159676e+000  1.893815e+000  6.000000e+000
      vertex  1.684387e+000  2.266181e+000  0.000000e+000
    endloop
  endfacet
  facet normal -6.167187e-001 -7.871836e-001  0.000000e+000
    outer loop
      vertex  1.684387e+000  2.266181e+000  0.000000e+000
      vertex  2.159676e+000  1.893815e+000  6.000000e+000
      vertex  1.684387e+000  2.266181e+000  6.000000e+000
    endloop
  endfacet
  facet normal -7.071068e-001 -7.071068e-001  -0.000000e+000
    outer loop
      vertex  1.684387e+000  2.266181e+000  0.000000e+000
      vertex  1.684387e+000  2.266181e+000  6.000000e+000
      vertex  1.257446e+000  2.693121e+000  0.000000e+000
    endloop
  endfacet
  facet normal -7.071068e-001 -7.071068e-001  0.000000e+000
    outer loop
      vertex  1.257446e+000  2.693121e+000  0.000000e+000
      vertex  1.684387e+000  2.266181e+000  6.000000e+000
      vertex  1.257446e+000  2.693121e+000  6.000000e+000
    endloop
  endfacet
  facet normal -7.871835e-001 -6.167188e-001  -0.000000e+000
    outer loop
      vertex  1.257446e+000  2.693121e+000  0.000000e+000
      vertex  1.257446e+000  2.693121e+000  6.000000e+000
      vertex  8.850807e-001  3.168411e+000  0.000000e+000
    endloop
  endfacet
  facet normal -7.871835e-001 -6.167188e-001  0.000000e+000
    outer loop
      vertex  8.850807e-001  3.168411e+000  0.000000e+000
      vertex  1.257446e+000  2.693121e+000  6.000000e+000
      vertex  8.850807e-001  3.168411e+000  6.000000e+000
    endloop
  endfacet
  facet normal -8.557813e-001 -5.173378e-001  -0.000000e+000
    outer loop
      vertex  8.850807e-001  3.168411e+000  0.000000e+000
      vertex  8.850807e-001  3.168411e+000  6.000000e+000
      vertex  5.727199e-001  3.685119e+000  0.000000e+000
    endloop
  endfacet
  facet normal -8.557813e-001 -5.173378e-001  0.000000e+000
    outer loop
      vertex  5.727199e-001  3.685119e+000  0.000000e+000
      vertex  8.850807e-001  3.168411e+000  6.000000e+000
      vertex  5.727199e-001  3.685119e+000  6.000000e+000
    endloop
  endfacet
  facet normal -9.118999e-001 -4.104128e-001  -0.000000e+000
    outer loop
      vertex  5.727199e-001  3.685119e+000  0.000000e+000
      vertex  5.727199e-001  3.685119e+000  6.000000e+000
      vertex  3.249188e-001  4.235710e+000  0.000000e+000
    endloop
  endfacet
  facet normal -9.118999e-001 -4.104128e-001  0.000000e+000
    outer loop
      vertex  3.249188e-001  4.235710e+000  0.000000e+000
      vertex  5.727199e-001  3.685119e+000  6.000000e+000
      vertex  3.249188e-001  4.235710e+000  6.000000e+000
    endloop
  endfacet
  facet normal -9.547208e-001 -2.975030e-001  -0.000000e+000
    outer loop
      vertex  3.249188e-001  4.235710e+000  0.000000e+000
      vertex  3.249188e-001  4.235710e+000  6.000000e+000
      vertex  1.452909e-001  4.812156e+000  0.000000e+000
    endloop
  endfacet
  facet normal -9.547208e-001 -2.975030e-001  0.000000e+000
    outer loop
      vertex  1.452909e-001  4.812156e+000  0.000000e+000
      vertex  3.249188e-001  4.235710e+000  6.000000e+000
      vertex  1.452909e-001  4.812156e+000  6.000000e+000
    endloop
  endfacet
  facet normal -9.836199e-001 -1.802550e-001  -0.000000e+000
    outer loop
      vertex  1.452909e-001  4.812156e+000  0.000000e+000
      vertex  1.452909e-001  4.812156e+000  6.000000e+000
      vertex  3.645563e-002  5.406051e+000  0.000000e+000
    endloop
  endfacet
  facet normal -9.836199e-001 -1.802550e-001  0.000000e+000
    outer loop
      vertex  3.645563e-002  5.406051e+000  0.000000e+000
      vertex  1.452909e-001  4.812156e+000  6.000000e+000
      vertex  3.645563e-002  5.406051e+000  6.000000e+000
    endloop
  endfacet
  facet normal -9.981755e-001 -6.037848e-002  -0.000000e+000
    outer loop
      vertex  3.645563e-002  5.406051e+000  0.000000e+000
      vertex  3.645563e-002  5.406051e+000  6.000000e+000
      vertex  0.000000e+000  6.008735e+000  0.000000e+000
    endloop
  endfacet
  facet normal -9.981755e-001 -6.037848e-002  0.000000e+000
    outer loop
      vertex  0.000000e+000  6.008735e+000  0.000000e+000
      vertex  3.645563e-002  5.406051e+000  6.000000e+000
      vertex  0.000000e+000  6.008735e+000  6.000000e+000
    endloop
  endfacet
  facet normal -9.981756e-001  6.037768e-002  0.000000e+000
    outer loop
      vertex  0.000000e+000  1.960087e+002  0.000000e+000
      vertex  0.000000e+000  1.960087e+002  6.000000e+000
      vertex  3.645563e-002  1.966114e+002  0.000000e+000
    endloop
  endfacet
  facet normal -9.981756e-001  6.037768e-002  0.000000e+000
    outer loop
      vertex  3.645563e-002  1.966114e+002  0.000000e+000
      vertex  0.000000e+000  1.960087e+002  6.000000e+000
      vertex  3.645563e-002  1.966114e+002  6.000000e+000
    endloop
  endfacet
  facet normal -9.836195e-001  1.802573e-001  0.000000e+000
    outer loop
      vertex  3.645563e-002  1.966114e+002  0.000000e+000
      vertex  3.645563e-002  1.966114e+002  6.000000e+000
      vertex  1.452909e-001  1.972053e+002  0.000000e+000
    endloop
  endfacet
  facet normal -9.836195e-001  1.802573e-001  0.000000e+000
    outer loop
      vertex  1.452909e-001  1.972053e+002  0.000000e+000
      vertex  3.645563e-002  1.966114e+002  6.000000e+000
      vertex  1.452909e-001  1.972053e+002  6.000000e+000
    endloop
  endfacet
  facet normal -9.547210e-001  2.975028e-001  0.000000e+000
    outer loop
      vertex  1.452909e-001  1.972053e+002  0.000000e+000
      vertex  1.452909e-001  1.972053e+002  6.000000e+000
      vertex  3.249188e-001  1.977818e+002  0.000000e+000
    endloop
  endfacet
  facet normal -9.547210e-001  2.975028e-001  0.000000e+000
    outer loop
      vertex  3.249188e-001  1.977818e+002  0.000000e+000
      vertex  1.452909e-001  1.972053e+002  6.000000e+000
      vertex  3.249188e-001  1.977818e+002  6.000000e+000
    endloop
  endfacet
  facet normal -9.119017e-001  4.104086e-001  0.000000e+000
    outer loop
      vertex  3.249188e-001  1.977818e+002  0.000000e+000
      vertex  3.249188e-001  1.977818e+002  6.000000e+000
      vertex  5.727199e-001  1.983324e+002  0.000000e+000
    endloop
  endfacet
  facet normal -9.119017e-001  4.104086e-001  0.000000e+000
    outer loop
      vertex  5.727199e-001  1.983324e+002  0.000000e+000
      vertex  3.249188e-001  1.977818e+002  6.000000e+000
      vertex  5.727199e-001  1.983324e+002  6.000000e+000
    endloop
  endfacet
  facet normal -8.557815e-001  5.173375e-001  0.000000e+000
    outer loop
      vertex  5.727199e-001  1.983324e+002  0.000000e+000
      vertex  5.727199e-001  1.983324e+002  6.000000e+000
      vertex  8.850807e-001  1.988491e+002  0.000000e+000
    endloop
  endfacet
  facet normal -8.557815e-001  5.173375e-001  0.000000e+000
    outer loop
      vertex  8.850807e-001  1.988491e+002  0.000000e+000
      vertex  5.727199e-001  1.983324e+002  6.000000e+000
      vertex  8.850807e-001  1.988491e+002  6.000000e+000
    endloop
  endfacet
  facet normal -7.871780e-001  6.167260e-001  0.000000e+000
    outer loop
      vertex  8.850807e-001  1.988491e+002  0.000000e+000
      vertex  8.850807e-001  1.988491e+002  6.000000e+000
      vertex  1.257446e+000  1.993243e+002  0.000000e+000
    endloop
  endfacet
  facet normal -7.871780e-001  6.167260e-001  0.000000e+000
    outer loop
      vertex  1.257446e+000  1.993243e+002  0.000000e+000
      vertex  8.850807e-001  1.988491e+002  6.000000e+000
      vertex  1.257446e+000  1.993243e+002  6.000000e+000
    endloop
  endfacet
  facet normal -7.071072e-001  7.071064e-001  0.000000e+000
    outer loop
      vertex  1.257446e+000  1.993243e+002  0.000000e+000
      vertex  1.257446e+000  1.993243e+002  6.000000e+000
      vertex  1.684387e+000  1.997513e+002  0.000000e+000
    endloop
  endfacet
  facet normal -7.071072e-001  7.071064e-001  0.000000e+000
    outer loop
      vertex  1.684387e+000  1.997513e+002  0.000000e+000
      vertex  1.257446e+000  1.993243e+002  6.000000e+000
      vertex  1.684387e+000  1.997513e+002  6.000000e+000
    endloop
  endfacet
  facet normal -6.167290e-001  7.871755e-001  0.000000e+000
    outer loop
      vertex  1.684387e+000  1.997513e+002  0.000000e+000
      vertex  1.684387e+000  1.997513e+002  6.000000e+000
      vertex  2.159676e+000  2.001237e+002  0.000000e+000
    endloop
  endfacet
  facet normal -6.167290e-001  7.871755e-001  0.000000e+000
    outer loop
      vertex  2.159676e+000  2.001237e+002  0.000000e+000
      vertex  1.684387e+000  1.997513e+002  6.000000e+000
      vertex  2.159676e+000  2.001237e+002  6.000000e+000
    endloop
  endfacet
  facet normal -5.173401e-001  8.557799e-001  0.000000e+000
    outer loop
      vertex  2.159676e+000  2.001237e+002  0.000000e+000
      vertex  2.159676e+000  2.001237e+002  6.000000e+000
      vertex  2.676384e+000  2.004360e+002  0.000000e+000
    endloop
  endfacet
  facet normal -5.173401e-001  8.557799e-001  0.000000e+000
    outer loop
      vertex  2.676384e+000  2.004360e+002  0.000000e+000
      vertex  2.159676e+000  2.001237e+002  6.000000e+000
      vertex  2.676384e+000  2.004360e+002  6.000000e+000
    endloop
  endfacet
  facet normal -4.104151e-001  9.118989e-001  0.000000e+000
    outer loop
      vertex  2.676384e+000  2.004360e+002  0.000000e+000
      vertex  2.676384e+000  2.004360e+002  6.000000e+000
      vertex  3.226976e+000  2.006838e+002  0.000000e+000
    endloop
  endfacet
  facet normal -4.104151e-001  9.118989e-001  0.000000e+000
    outer loop
      vertex  3.226976e+000  2.006838e+002  0.000000e+000
      vertex  2.676384e+000  2.004360e+002  6.000000e+000
      vertex  3.226976e+000  2.006838e+002  6.000000e+000
    endloop
  endfacet
  facet normal -2.975010e-001  9.547215e-001  0.000000e+000
    outer loop
      vertex  3.226976e+000  2.006838e+002  0.000000e+000
      vertex  3.226976e+000  2.006838e+002  6.000000e+000
      vertex  3.803422e+000  2.008634e+002  0.000000e+000
    endloop
  endfacet
  facet normal -2.975010e-001  9.547215e-001  0.000000e+000
    outer loop
      vertex  3.803422e+000  2.008634e+002  0.000000e+000
      vertex  3.226976e+000  2.006838e+002  6.000000e+000
      vertex  3.803422e+000  2.008634e+002  6.000000e+000
    endloop
  endfacet
  facet normal -1.802397e-001  9.836227e-001  0.000000e+000
    outer loop
      vertex  3.803422e+000  2.008634e+002  0.000000e+000
      vertex  3.803422e+000  2.008634e+002  6.000000e+000
      vertex  4.397316e+000  2.009723e+002  0.000000e+000
    endloop
  endfacet
  facet normal -1.802397e-001  9.836227e-001  0.000000e+000
    outer loop
      vertex  4.397316e+000  2.009723e+002  0.000000e+000
      vertex  3.803422e+000  2.008634e+002  6.000000e+000
      vertex  4.397316e+000  2.009723e+002  6.000000e+000
    endloop
  endfacet
  facet normal -6.037455e-002  9.981759e-001  0.000000e+000
    outer loop
      vertex  4.397316e+000  2.009723e+002  0.000000e+000
      vertex  4.397316e+000  2.009723e+002  6.000000e+000
      vertex  5.000000e+000  2.010087e+002  0.000000e+000
    endloop
  endfacet
  facet normal -6.037455e-002  9.981759e-001  0.000000e+000
    outer loop
      vertex  5.000000e+000  2.010087e+002  0.000000e+000
      vertex  4.397316e+000  2.009723e+002  6.000000e+000
      vertex  5.000000e+000  2.010087e+002  6.000000e+000
    endloop
  endfacet
  facet normal  6.037375e-002  9.981759e-001  0.000000e+000
    outer loop
      vertex  3.450000e+002  2.010087e+002  0.000000e+000
      vertex  3.450000e+002  2.010087e+002  6.000000e+000
      vertex  3.456027e+002  2.009723e+002  0.000000e+000
    endloop
  endfacet
  facet normal  6.037375e-002  9.981759e-001  -0.000000e+000
    outer loop
      vertex  3.456027e+002  2.009723e+002  0.000000e+000
      vertex  3.450000e+002  2.010087e+002  6.000000e+000
      vertex  3.456027e+002  2.009723e+002  6.000000e+000
    endloop
  endfacet
  facet normal  1.802464e-001  9.836215e-001  0.000000e+000
    outer loop
      vertex  3.456027e+002  2.009723e+002  0.000000e+000
      vertex  3.456027e+002  2.009723e+002  6.000000e+000
      vertex  3.461966e+002  2.008634e+002  0.000000e+000
    endloop
  endfacet
  facet normal  1.802464e-001  9.836215e-001  -0.000000e+000
    outer loop
      vertex  3.461966e+002  2.008634e+002  0.000000e+000
      vertex  3.456027e+002  2.009723e+002  6.000000e+000
      vertex  3.461966e+002  2.008634e+002  6.000000e+000
    endloop
  endfacet
  facet normal  2.975007e-001  9.547216e-001  0.000000e+000
    outer loop
      vertex  3.461966e+002  2.008634e+002  0.000000e+000
      vertex  3.461966e+002  2.008634e+002  6.000000e+000
      vertex  3.467730e+002  2.006838e+002  0.000000e+000
    endloop
  endfacet
  facet normal  2.975007e-001  9.547216e-001  -0.000000e+000
    outer loop
      vertex  3.467730e+002  2.006838e+002  0.000000e+000
      vertex  3.461966e+002  2.008634e+002  6.000000e+000
      vertex  3.467730e+002  2.006838e+002  6.000000e+000
    endloop
  endfacet
  facet normal  4.104109e-001  9.119007e-001  0.000000e+000
    outer loop
      vertex  3.467730e+002  2.006838e+002  0.000000e+000
      vertex  3.467730e+002  2.006838e+002  6.000000e+000
      vertex  3.473236e+002  2.004360e+002  0.000000e+000
    endloop
  endfacet
  facet normal  4.104109e-001  9.119007e-001  -0.000000e+000
    outer loop
      vertex  3.473236e+002  2.004360e+002  0.000000e+000
      vertex  3.467730e+002  2.006838e+002  6.000000e+000
      vertex  3.473236e+002  2.004360e+002  6.000000e+000
    endloop
  endfacet
  facet normal  5.173286e-001  8.557869e-001  0.000000e+000
    outer loop
      vertex  3.473236e+002  2.004360e+002  0.000000e+000
      vertex  3.473236e+002  2.004360e+002  6.000000e+000
      vertex  3.478403e+002  2.001237e+002  0.000000e+000
    endloop
  endfacet
  facet normal  5.173286e-001  8.557869e-001  -0.000000e+000
    outer loop
      vertex  3.478403e+002  2.001237e+002  0.000000e+000
      vertex  3.473236e+002  2.004360e+002  6.000000e+000
      vertex  3.478403e+002  2.001237e+002  6.000000e+000
    endloop
  endfacet
  facet normal  6.167361e-001  7.871700e-001  0.000000e+000
    outer loop
      vertex  3.478403e+002  2.001237e+002  0.000000e+000
      vertex  3.478403e+002  2.001237e+002  6.000000e+000
      vertex  3.483156e+002  1.997513e+002  0.000000e+000
    endloop
  endfacet
  facet normal  6.167361e-001  7.871700e-001  -0.000000e+000
    outer loop
      vertex  3.483156e+002  1.997513e+002  0.000000e+000
      vertex  3.478403e+002  2.001237e+002  6.000000e+000
      vertex  3.483156e+002  1.997513e+002  6.000000e+000
    endloop
  endfacet
  facet normal  7.071068e-001  7.071068e-001  0.000000e+000
    outer loop
      vertex  3.483156e+002  1.997513e+002  0.000000e+000
      vertex  3.483156e+002  1.997513e+002  6.000000e+000
      vertex  3.487426e+002  1.993243e+002  0.000000e+000
    endloop
  endfacet
  facet normal  7.071068e-001  7.071068e-001  -0.000000e+000
    outer loop
      vertex  3.487426e+002  1.993243e+002  0.000000e+000
      vertex  3.483156e+002  1.997513e+002  6.000000e+000
      vertex  3.487426e+002  1.993243e+002  6.000000e+000
    endloop
  endfacet
  facet normal  7.871700e-001  6.167361e-001  0.000000e+000
    outer loop
      vertex  3.487426e+002  1.993243e+002  0.000000e+000
      vertex  3.487426e+002  1.993243e+002  6.000000e+000
      vertex  3.491149e+002  1.988491e+002  0.000000e+000
    endloop
  endfacet
  facet normal  7.871700e-001  6.167361e-001  -0.000000e+000
    outer loop
      vertex  3.491149e+002  1.988491e+002  0.000000e+000
      vertex  3.487426e+002  1.993243e+002  6.000000e+000
      vertex  3.491149e+002  1.988491e+002  6.000000e+000
    endloop
  endfacet
  facet normal  8.557913e-001  5.173212e-001  0.000000e+000
    outer loop
      vertex  3.491149e+002  1.988491e+002  0.000000e+000
      vertex  3.491149e+002  1.988491e+002  6.000000e+000
      vertex  3.494273e+002  1.983324e+002  0.000000e+000
    endloop
  endfacet
  facet normal  8.557913e-001  5.173212e-001  -0.000000e+000
    outer loop
      vertex  3.494273e+002  1.983324e+002  0.000000e+000
      vertex  3.491149e+002  1.988491e+002  6.000000e+000
      vertex  3.494273e+002  1.983324e+002  6.000000e+000
    endloop
  endfacet
  facet normal  9.119007e-001  4.104109e-001  0.000000e+000
    outer loop
      vertex  3.494273e+002  1.983324e+002  0.000000e+000
      vertex  3.494273e+002  1.983324e+002  6.000000e+000
      vertex  3.496751e+002  1.977818e+002  0.000000e+000
    endloop
  endfacet
  facet normal  9.119007e-001  4.104109e-001  -0.000000e+000
    outer loop
      vertex  3.496751e+002  1.977818e+002  0.000000e+000
      vertex  3.494273e+002  1.983324e+002  6.000000e+000
      vertex  3.496751e+002  1.977818e+002  6.000000e+000
    endloop
  endfacet
  facet normal  9.547216e-001  2.975007e-001  0.000000e+000
    outer loop
      vertex  3.496751e+002  1.977818e+002  0.000000e+000
      vertex  3.496751e+002  1.977818e+002  6.000000e+000
      vertex  3.498547e+002  1.972053e+002  0.000000e+000
    endloop
  endfacet
  facet normal  9.547216e-001  2.975007e-001  -0.000000e+000
    outer loop
      vertex  3.498547e+002  1.972053e+002  0.000000e+000
      vertex  3.496751e+002  1.977818e+002  6.000000e+000
      vertex  3.498547e+002  1.972053e+002  6.000000e+000
    endloop
  endfacet
  facet normal  9.836224e-001  1.802419e-001  0.000000e+000
    outer loop
      vertex  3.498547e+002  1.972053e+002  0.000000e+000
      vertex  3.498547e+002  1.972053e+002  6.000000e+000
      vertex  3.499635e+002  1.966114e+002  0.000000e+000
    endloop
  endfacet
  facet normal  9.836224e-001  1.802419e-001  -0.000000e+000
    outer loop
      vertex  3.499635e+002  1.966114e+002  0.000000e+000
      vertex  3.498547e+002  1.972053e+002  6.000000e+000
      vertex  3.499635e+002  1.966114e+002  6.000000e+000
    endloop
  endfacet
  facet normal  9.981743e-001  6.039892e-002  0.000000e+000
    outer loop
      vertex  3.499635e+002  1.966114e+002  0.000000e+000
      vertex  3.499635e+002  1.966114e+002  6.000000e+000
      vertex  3.500000e+002  1.960087e+002  0.000000e+000
    endloop
  endfacet
  facet normal  9.981743e-001  6.039892e-002  -0.000000e+000
    outer loop
      vertex  3.500000e+002  1.960087e+002  0.000000e+000
      vertex  3.499635e+002  1.966114e+002  6.000000e+000
      vertex  3.500000e+002  1.960087e+002  6.000000e+000
    endloop
  endfacet
  facet normal  9.981743e-001 -6.039973e-002  0.000000e+000
    outer loop
      vertex  3.500000e+002  6.008735e+000  0.000000e+000
      vertex  3.500000e+002  6.008735e+000  6.000000e+000
      vertex  3.499635e+002  5.406051e+000  0.000000e+000
    endloop
  endfacet
  facet normal  9.981743e-001 -6.039973e-002  0.000000e+000
    outer loop
      vertex  3.499635e+002  5.406051e+000  0.000000e+000
      vertex  3.500000e+002  6.008735e+000  6.000000e+000
      vertex  3.499635e+002  5.406051e+000  6.000000e+000
    endloop
  endfacet
  facet normal  9.836227e-001 -1.802396e-001  0.000000e+000
    outer loop
      vertex  3.499635e+002  5.406051e+000  0.000000e+000
      vertex  3.499635e+002  5.406051e+000  6.000000e+000
      vertex  3.498547e+002  4.812156e+000  0.000000e+000
    endloop
  endfacet
  facet normal  9.836227e-001 -1.802396e-001  0.000000e+000
    outer loop
      vertex  3.498547e+002  4.812156e+000  0.000000e+000
      vertex  3.499635e+002  5.406051e+000  6.000000e+000
      vertex  3.498547e+002  4.812156e+000  6.000000e+000
    endloop
  endfacet
  facet normal  9.547215e-001 -2.975010e-001  0.000000e+000
    outer loop
      vertex  3.498547e+002  4.812156e+000  0.000000e+000
      vertex  3.498547e+002  4.812156e+000  6.000000e+000
      vertex  3.496751e+002  4.235710e+000  0.000000e+000
    endloop
  endfacet
  facet normal  9.547215e-001 -2.975010e-001  0.000000e+000
    outer loop
      vertex  3.496751e+002  4.235710e+000  0.000000e+000
      vertex  3.498547e+002  4.812156e+000  6.000000e+000
      vertex  3.496751e+002  4.235710e+000  6.000000e+000
    endloop
  endfacet
  facet normal  9.118989e-001 -4.104151e-001  0.000000e+000
    outer loop
      vertex  3.496751e+002  4.235710e+000  0.000000e+000
      vertex  3.496751e+002  4.235710e+000  6.000000e+000
      vertex  3.494273e+002  3.685119e+000  0.000000e+000
    endloop
  endfacet
  facet normal  9.118989e-001 -4.104151e-001  0.000000e+000
    outer loop
      vertex  3.494273e+002  3.685119e+000  0.000000e+000
      vertex  3.496751e+002  4.235710e+000  6.000000e+000
      vertex  3.494273e+002  3.685119e+000  6.000000e+000
    endloop
  endfacet
  facet normal  8.557910e-001 -5.173215e-001  0.000000e+000
    outer loop
      vertex  3.494273e+002  3.685119e+000  0.000000e+000
      vertex  3.494273e+002  3.685119e+000  6.000000e+000
      vertex  3.491149e+002  3.168411e+000  0.000000e+000
    endloop
  endfacet
  facet normal  8.557910e-001 -5.173215e-001  0.000000e+000
    outer loop
      vertex  3.491149e+002  3.168411e+000  0.000000e+000
      vertex  3.494273e+002  3.685119e+000  6.000000e+000
      vertex  3.491149e+002  3.168411e+000  6.000000e+000
    endloop
  endfacet
  facet normal  7.871755e-001 -6.167290e-001  0.000000e+000
    outer loop
      vertex  3.491149e+002  3.168411e+000  0.000000e+000
      vertex  3.491149e+002  3.168411e+000  6.000000e+000
      vertex  3.487426e+002  2.693121e+000  0.000000e+000
    endloop
  endfacet
  facet normal  7.871755e-001 -6.167290e-001  0.000000e+000
    outer loop
      vertex  3.487426e+002  2.693121e+000  0.000000e+000
      vertex  3.491149e+002  3.168411e+000  6.000000e+000
      vertex  3.487426e+002  2.693121e+000  6.000000e+000
    endloop
  endfacet
  facet normal  7.071064e-001 -7.071072e-001  0.000000e+000
    outer loop
      vertex  3.487426e+002  2.693121e+000  0.000000e+000
      vertex  3.487426e+002  2.693121e+000  6.000000e+000
      vertex  3.483156e+002  2.266181e+000  0.000000e+000
    endloop
  endfacet
  facet normal  7.071064e-001 -7.071072e-001  0.000000e+000
    outer loop
      vertex  3.483156e+002  2.266181e+000  0.000000e+000
      vertex  3.487426e+002  2.693121e+000  6.000000e+000
      vertex  3.483156e+002  2.266181e+000  6.000000e+000
    endloop
  endfacet
  facet normal  6.167259e-001 -7.871780e-001  0.000000e+000
    outer loop
      vertex  3.483156e+002  2.266181e+000  0.000000e+000
      vertex  3.483156e+002  2.266181e+000  6.000000e+000
      vertex  3.478403e+002  1.893815e+000  0.000000e+000
    endloop
  endfacet
  facet normal  6.167259e-001 -7.871780e-001  0.000000e+000
    outer loop
      vertex  3.478403e+002  1.893815e+000  0.000000e+000
      vertex  3.483156e+002  2.266181e+000  6.000000e+000
      vertex  3.478403e+002  1.893815e+000  6.000000e+000
    endloop
  endfacet
  facet normal  5.173264e-001 -8.557882e-001  0.000000e+000
    outer loop
      vertex  3.478403e+002  1.893815e+000  0.000000e+000
      vertex  3.478403e+002  1.893815e+000  6.000000e+000
      vertex  3.473236e+002  1.581454e+000  0.000000e+000
    endloop
  endfacet
  facet normal  5.173264e-001 -8.557882e-001  0.000000e+000
    outer loop
      vertex  3.473236e+002  1.581454e+000  0.000000e+000
      vertex  3.478403e+002  1.893815e+000  6.000000e+000
      vertex  3.473236e+002  1.581454e+000  6.000000e+000
    endloop
  endfacet
  facet normal  4.104086e-001 -9.119018e-001  0.000000e+000
    outer loop
      vertex  3.473236e+002  1.581454e+000  0.000000e+000
      vertex  3.473236e+002  1.581454e+000  6.000000e+000
      vertex  3.467730e+002  1.333653e+000  0.000000e+000
    endloop
  endfacet
  facet normal  4.104086e-001 -9.119018e-001  0.000000e+000
    outer loop
      vertex  3.467730e+002  1.333653e+000  0.000000e+000
      vertex  3.473236e+002  1.581454e+000  6.000000e+000
      vertex  3.467730e+002  1.333653e+000  6.000000e+000
    endloop
  endfacet
  facet normal  2.975027e-001 -9.547210e-001  0.000000e+000
    outer loop
      vertex  3.467730e+002  1.333653e+000  0.000000e+000
      vertex  3.467730e+002  1.333653e+000  6.000000e+000
      vertex  3.461966e+002  1.154026e+000  0.000000e+000
    endloop
  endfacet
  facet normal  2.975027e-001 -9.547210e-001  0.000000e+000
    outer loop
      vertex  3.461966e+002  1.154026e+000  0.000000e+000
      vertex  3.467730e+002  1.333653e+000  6.000000e+000
      vertex  3.461966e+002  1.154026e+000  6.000000e+000
    endloop
  endfacet
  facet normal  1.802618e-001 -9.836186e-001  0.000000e+000
    outer loop
      vertex  3.461966e+002  1.154026e+000  0.000000e+000
      vertex  3.461966e+002  1.154026e+000  6.000000e+000
      vertex  3.456027e+002  1.045190e+000  0.000000e+000
    endloop
  endfacet
  facet normal  1.802618e-001 -9.836186e-001  0.000000e+000
    outer loop
      vertex  3.456027e+002  1.045190e+000  0.000000e+000
      vertex  3.461966e+002  1.154026e+000  6.000000e+000
      vertex  3.456027e+002  1.045190e+000  6.000000e+000
    endloop
  endfacet
  facet normal  6.037768e-002 -9.981756e-001  0.000000e+000
    outer loop
      vertex  3.456027e+002  1.045190e+000  0.000000e+000
      vertex  3.456027e+002  1.045190e+000  6.000000e+000
      vertex  3.450000e+002  1.008735e+000  0.000000e+000
    endloop
  endfacet
  facet normal  6.037768e-002 -9.981756e-001  0.000000e+000
    outer loop
      vertex  3.450000e+002  1.008735e+000  0.000000e+000
      vertex  3.456027e+002  1.045190e+000  6.000000e+000
      vertex  3.450000e+002  1.008735e+000  6.000000e+000
    endloop
  endfacet
endsolid CATIA STL
